<svg xmlns="http://www.w3.org/2000/svg" width="86.182" height="44.924" viewBox="0 0 86.182 44.924"><defs><style>.a{fill:#ff4d6b;}</style></defs><g transform="translate(-73.819 193.935)"><g transform="translate(73.819 -193.935)"><path class="a" d="M149.127-176.993h-6.981a10.885,10.885,0,0,1-10.873,10.873A10.885,10.885,0,0,1,120.4-176.993h-6.981a10.886,10.886,0,0,1-10.873,10.873,10.885,10.885,0,0,1-10.873-10.873H84.692A10.885,10.885,0,0,1,73.819-166.12v6.982A17.839,17.839,0,0,0,88.183-166.4a17.839,17.839,0,0,0,14.363,7.264A17.839,17.839,0,0,0,116.91-166.4a17.839,17.839,0,0,0,14.363,7.264,17.839,17.839,0,0,0,14.364-7.264A17.839,17.839,0,0,0,160-159.139v-6.982A10.885,10.885,0,0,1,149.127-176.993Z" transform="translate(-73.819 176.993)"/><path class="a" d="M149.127-129.136h-6.981a10.885,10.885,0,0,1-10.873,10.873A10.885,10.885,0,0,1,120.4-129.136h-6.981a10.886,10.886,0,0,1-10.873,10.873,10.885,10.885,0,0,1-10.873-10.873H84.692a10.885,10.885,0,0,1-10.873,10.873v6.982a17.839,17.839,0,0,0,14.364-7.264,17.839,17.839,0,0,0,14.363,7.264,17.839,17.839,0,0,0,14.364-7.264,17.839,17.839,0,0,0,14.363,7.264,17.839,17.839,0,0,0,14.364-7.264A17.839,17.839,0,0,0,160-111.282v-6.982A10.885,10.885,0,0,1,149.127-129.136Z" transform="translate(-73.819 156.206)"/></g></g></svg>